<?xml version="1.0" encoding="UTF-8"?>
<svg version="1.1" xmlns="http://www.w3.org/2000/svg" width="48" height="48">
<path d="M0 0 C5.53846154 3.07692308 5.53846154 3.07692308 7 6 C7.29518568 9.53489938 7.27809722 13.0792206 7.3125 16.625 C7.34150391 17.59824219 7.37050781 18.57148438 7.40039062 19.57421875 C7.45558527 25.88339085 6.84170953 30.84128905 3 36 C0.51953125 38.13671875 0.51953125 38.13671875 -2.1875 39.6875 C-3.15429688 40.24824219 -4.12109375 40.80898438 -5.1171875 41.38671875 C-6.06851562 41.91910156 -7.01984375 42.45148437 -8 43 C-9.24136719 43.78310547 -9.24136719 43.78310547 -10.5078125 44.58203125 C-13.9551259 46.70300542 -16.15202766 47.98369284 -20.25 48.0625 C-24.05756431 46.59139561 -27.13760633 44.72478734 -29 41 C-29.29518568 37.46510062 -29.27809722 33.9207794 -29.3125 30.375 C-29.34150391 29.40175781 -29.37050781 28.42851562 -29.40039062 27.42578125 C-29.455042 21.1787088 -29.02329618 15.99746162 -25 11 C-22.46900207 8.83460212 -19.77241578 7.19262033 -16.875 5.5625 C-16.14667969 5.13001953 -15.41835938 4.69753906 -14.66796875 4.25195312 C-9.44316574 1.16632547 -6.29798837 -0.52483236 0 0 Z " fill="#3E4344" transform="translate(35,0)"/>
<path d="M0 0 C0.66 0.66 1.32 1.32 2 2 C1.44538086 2.30703857 0.89076172 2.61407715 0.31933594 2.93041992 C-2.20995355 4.33866611 -4.72990947 5.76286247 -7.25 7.1875 C-8.12269531 7.67025391 -8.99539062 8.15300781 -9.89453125 8.65039062 C-15.23032667 11.6848697 -19.17933157 14.35866314 -22 20 C-22.15378852 21.95774069 -22.24971463 23.92017352 -22.31640625 25.8828125 C-22.35830078 27.04941406 -22.40019531 28.21601563 -22.44335938 29.41796875 C-22.50233398 31.25294922 -22.50233398 31.25294922 -22.5625 33.125 C-22.60568359 34.35605469 -22.64886719 35.58710937 -22.69335938 36.85546875 C-22.79968704 39.90352853 -22.90171781 42.9516719 -23 46 C-27.875 43.25 -27.875 43.25 -29 41 C-29.29518568 37.46510062 -29.27809722 33.9207794 -29.3125 30.375 C-29.34150391 29.40175781 -29.37050781 28.42851562 -29.40039062 27.42578125 C-29.455042 21.1787088 -29.02329618 15.99746162 -25 11 C-22.46900207 8.83460212 -19.77241578 7.19262033 -16.875 5.5625 C-16.14667969 5.13001953 -15.41835938 4.69753906 -14.66796875 4.25195312 C-9.40765688 1.14535489 -6.32392099 -0.33878148 0 0 Z " fill="#262C2D" transform="translate(35,0)"/>
<path d="M0 0 C2.475 0.99 2.475 0.99 5 2 C5.33 10.25 5.66 18.5 6 27 C1 24 1 24 0 22 C-0.08426094 20.3325394 -0.10725143 18.66174813 -0.09765625 16.9921875 C-0.09443359 16.00605469 -0.09121094 15.01992188 -0.08789062 14.00390625 C-0.07951172 12.97136719 -0.07113281 11.93882813 -0.0625 10.875 C-0.05798828 9.83472656 -0.05347656 8.79445313 -0.04882812 7.72265625 C-0.03701952 5.14838038 -0.02055075 2.57421854 0 0 Z " fill="#090C0C" transform="translate(6,19)"/>
<path d="M0 0 C0.33 0 0.66 0 1 0 C1.1173794 3.49971199 1.18763961 6.99890955 1.25 10.5 C1.30027344 11.97339844 1.30027344 11.97339844 1.3515625 13.4765625 C1.43630521 19.83226541 0.88581619 24.80577512 -3 30 C-5.48046875 32.13671875 -5.48046875 32.13671875 -8.1875 33.6875 C-9.15429688 34.24824219 -10.12109375 34.80898438 -11.1171875 35.38671875 C-12.06851562 35.91910156 -13.01984375 36.45148437 -14 37 C-15.24136719 37.78310547 -15.24136719 37.78310547 -16.5078125 38.58203125 C-22.13701249 42.0454204 -22.13701249 42.0454204 -26.5625 41.8125 C-27.366875 41.544375 -28.17125 41.27625 -29 41 C-28.34 40.34 -27.68 39.68 -27 39 C-26.30003906 39.05542969 -25.60007812 39.11085937 -24.87890625 39.16796875 C-20.49834967 38.91238675 -17.56163133 36.65439971 -13.9375 34.3125 C-12.87692383 33.65991211 -12.87692383 33.65991211 -11.79492188 32.99414062 C-6.78868229 29.82117187 -2.93888359 26.81665076 -1 21 C-0.85284801 19.37432921 -0.75278133 17.74413143 -0.68359375 16.11328125 C-0.64169922 15.17548828 -0.59980469 14.23769531 -0.55664062 13.27148438 C-0.51732422 12.29501953 -0.47800781 11.31855469 -0.4375 10.3125 C-0.39431641 9.32443359 -0.35113281 8.33636719 -0.30664062 7.31835938 C-0.20058346 4.87904454 -0.09852286 2.43962887 0 0 Z " fill="#4F5759" transform="translate(41,6)"/>
<path d="M0 0 C2.49361571 1.20381448 4.68143083 2.45428722 7 4 C5.78065514 8.03321763 4.44045073 11.54269479 2 15 C1.34 15 0.68 15 0 15 C0.60698743 10.87248551 2.03810791 7.6678852 4 4 C2.68 3.67 1.36 3.34 0 3 C0 2.01 0 1.02 0 0 Z " fill="#DFE0E0" transform="translate(19,24)"/>
<path d="M0 0 C-1.25535985 3.76607955 -2.52883585 4.26441793 -6 6 C-6.99 6 -7.98 6 -9 6 C-8 3 -8 3 -5.0625 1.3125 C-2 0 -2 0 0 0 Z " fill="#DCDDDD" transform="translate(35,29)"/>
</svg>
