<svg xmlns="http://www.w3.org/2000/svg" xmlns:xlink="http://www.w3.org/1999/xlink" width="100" zoomAndPan="magnify" viewBox="0 0 75 30.000001" height="40" preserveAspectRatio="xMidYMid meet" version="1.0"><defs><g/><clipPath id="3cf7f4302a"><path d="M 2.761719 7.789062 L 16.214844 7.789062 L 16.214844 21.242188 L 2.761719 21.242188 Z M 2.761719 7.789062 " clip-rule="nonzero"/></clipPath><clipPath id="cab8d6d2e5"><path d="M 9.488281 7.789062 C 5.773438 7.789062 2.761719 10.800781 2.761719 14.515625 C 2.761719 18.230469 5.773438 21.242188 9.488281 21.242188 C 13.203125 21.242188 16.214844 18.230469 16.214844 14.515625 C 16.214844 10.800781 13.203125 7.789062 9.488281 7.789062 Z M 9.488281 7.789062 " clip-rule="nonzero"/></clipPath></defs><g clip-path="url(#3cf7f4302a)"><g clip-path="url(#cab8d6d2e5)"><path fill="#000000" d="M 2.761719 7.789062 L 16.214844 7.789062 L 16.214844 21.242188 L 2.761719 21.242188 Z M 2.761719 7.789062 " fill-opacity="1" fill-rule="nonzero"/></g></g><g fill="#ffffff" fill-opacity="1"><g transform="translate(4.831556, 17.541737)"><g><path d="M 2.859375 -0.625 L 2.359375 -0.3125 L 1.9375 -0.421875 L 0.234375 -2.59375 L 0.078125 -2.984375 L 0.234375 -3.359375 L 1.8125 -5.671875 L 2.234375 -5.765625 L 2.734375 -5.46875 L 1.21875 -2.984375 Z M 2.859375 -0.625 "/></g></g></g><g fill="#ffffff" fill-opacity="1"><g transform="translate(7.939464, 17.541737)"><g><path d="M 0.0625 1.015625 L 2.03125 -6.875 L 2.890625 -6.875 L 3.015625 -6.75 L 1.15625 1.140625 L 0.1875 1.140625 Z M 0.0625 1.015625 "/></g></g></g><g fill="#ffffff" fill-opacity="1"><g transform="translate(11.031675, 17.541737)"><g><path d="M 0.75 -0.3125 L 0.25 -0.625 L 1.875 -2.984375 L 0.375 -5.46875 L 0.875 -5.765625 L 1.296875 -5.671875 L 2.875 -3.359375 L 3.03125 -2.984375 L 2.875 -2.59375 L 1.171875 -0.421875 Z M 0.75 -0.3125 "/></g></g></g><g fill="#000000" fill-opacity="1"><g transform="translate(17.440752, 18.388386)"><g><path d="M 0.921875 -7.65625 L 2.609375 -7.65625 L 2.609375 -1.53125 L 6.421875 -1.53125 L 6.421875 0 L 0.921875 0 Z M 0.921875 -7.65625 "/></g></g></g><g fill="#000000" fill-opacity="1"><g transform="translate(24.207794, 18.388386)"><g><path d="M 3.515625 0.125 C 3.078125 0.125 2.671875 0.0507812 2.296875 -0.09375 C 1.921875 -0.238281 1.597656 -0.441406 1.328125 -0.703125 C 1.054688 -0.972656 0.84375 -1.289062 0.6875 -1.65625 C 0.53125 -2.03125 0.453125 -2.441406 0.453125 -2.890625 L 0.453125 -2.921875 C 0.453125 -3.335938 0.523438 -3.726562 0.671875 -4.09375 C 0.816406 -4.46875 1.015625 -4.789062 1.265625 -5.0625 C 1.523438 -5.34375 1.832031 -5.5625 2.1875 -5.71875 C 2.539062 -5.882812 2.929688 -5.96875 3.359375 -5.96875 C 3.847656 -5.96875 4.269531 -5.878906 4.625 -5.703125 C 4.976562 -5.535156 5.273438 -5.300781 5.515625 -5 C 5.753906 -4.707031 5.929688 -4.367188 6.046875 -3.984375 C 6.160156 -3.597656 6.21875 -3.195312 6.21875 -2.78125 C 6.21875 -2.71875 6.210938 -2.648438 6.203125 -2.578125 C 6.203125 -2.503906 6.195312 -2.425781 6.1875 -2.34375 L 2.109375 -2.34375 C 2.191406 -1.96875 2.359375 -1.679688 2.609375 -1.484375 C 2.859375 -1.296875 3.171875 -1.203125 3.546875 -1.203125 C 3.816406 -1.203125 4.0625 -1.25 4.28125 -1.34375 C 4.5 -1.4375 4.726562 -1.585938 4.96875 -1.796875 L 5.921875 -0.96875 C 5.640625 -0.625 5.300781 -0.351562 4.90625 -0.15625 C 4.507812 0.03125 4.046875 0.125 3.515625 0.125 Z M 4.59375 -3.390625 C 4.539062 -3.765625 4.40625 -4.066406 4.1875 -4.296875 C 3.976562 -4.523438 3.703125 -4.640625 3.359375 -4.640625 C 3.003906 -4.640625 2.71875 -4.523438 2.5 -4.296875 C 2.289062 -4.066406 2.15625 -3.765625 2.09375 -3.390625 Z M 4.59375 -3.390625 "/></g></g></g><g fill="#000000" fill-opacity="1"><g transform="translate(30.909244, 18.388386)"><g><path d="M 0.78125 -7.984375 L 2.53125 -7.984375 L 2.53125 -6.5 L 0.78125 -6.5 Z M 0.8125 -5.859375 L 2.484375 -5.859375 L 2.484375 0 L 0.8125 0 Z M 0.8125 -5.859375 "/></g></g></g><g fill="#000000" fill-opacity="1"><g transform="translate(34.210774, 18.388386)"><g><path d="M 3.203125 -4.140625 L 4.3125 -5.859375 L 6.046875 -5.859375 L 4.0625 -3 L 6.140625 0 L 4.359375 0 L 3.171875 -1.828125 L 1.984375 0 L 0.25 0 L 2.3125 -2.96875 L 0.328125 -5.859375 L 2.109375 -5.859375 Z M 3.203125 -4.140625 "/></g></g></g><g fill="#000000" fill-opacity="1"><g transform="translate(40.595189, 18.388386)"><g><path d="M 4.5 0.125 C 3.9375 0.125 3.414062 0.0234375 2.9375 -0.171875 C 2.457031 -0.378906 2.039062 -0.660156 1.6875 -1.015625 C 1.34375 -1.367188 1.070312 -1.785156 0.875 -2.265625 C 0.675781 -2.742188 0.578125 -3.257812 0.578125 -3.8125 L 0.578125 -3.828125 C 0.578125 -4.367188 0.675781 -4.878906 0.875 -5.359375 C 1.070312 -5.835938 1.34375 -6.253906 1.6875 -6.609375 C 2.039062 -6.972656 2.460938 -7.257812 2.953125 -7.46875 C 3.441406 -7.675781 3.984375 -7.78125 4.578125 -7.78125 C 4.929688 -7.78125 5.253906 -7.75 5.546875 -7.6875 C 5.847656 -7.632812 6.117188 -7.554688 6.359375 -7.453125 C 6.597656 -7.359375 6.816406 -7.238281 7.015625 -7.09375 C 7.222656 -6.945312 7.414062 -6.785156 7.59375 -6.609375 L 6.515625 -5.375 C 6.210938 -5.644531 5.90625 -5.851562 5.59375 -6 C 5.289062 -6.15625 4.945312 -6.234375 4.5625 -6.234375 C 4.238281 -6.234375 3.941406 -6.171875 3.671875 -6.046875 C 3.398438 -5.921875 3.164062 -5.75 2.96875 -5.53125 C 2.769531 -5.3125 2.613281 -5.054688 2.5 -4.765625 C 2.394531 -4.484375 2.34375 -4.175781 2.34375 -3.84375 L 2.34375 -3.828125 C 2.34375 -3.492188 2.394531 -3.179688 2.5 -2.890625 C 2.613281 -2.597656 2.765625 -2.34375 2.953125 -2.125 C 3.148438 -1.90625 3.382812 -1.734375 3.65625 -1.609375 C 3.925781 -1.484375 4.226562 -1.421875 4.5625 -1.421875 C 5 -1.421875 5.367188 -1.5 5.671875 -1.65625 C 5.972656 -1.820312 6.273438 -2.039062 6.578125 -2.3125 L 7.640625 -1.234375 C 7.441406 -1.023438 7.238281 -0.835938 7.03125 -0.671875 C 6.820312 -0.503906 6.585938 -0.359375 6.328125 -0.234375 C 6.078125 -0.109375 5.800781 -0.0195312 5.5 0.03125 C 5.207031 0.09375 4.875 0.125 4.5 0.125 Z M 4.5 0.125 "/></g></g></g><g fill="#000000" fill-opacity="1"><g transform="translate(48.663165, 18.388386)"><g><path d="M 3.625 0.125 C 3.164062 0.125 2.742188 0.046875 2.359375 -0.109375 C 1.972656 -0.265625 1.640625 -0.476562 1.359375 -0.75 C 1.078125 -1.019531 0.851562 -1.335938 0.6875 -1.703125 C 0.53125 -2.078125 0.453125 -2.472656 0.453125 -2.890625 L 0.453125 -2.921875 C 0.453125 -3.335938 0.53125 -3.726562 0.6875 -4.09375 C 0.851562 -4.46875 1.078125 -4.789062 1.359375 -5.0625 C 1.648438 -5.34375 1.988281 -5.5625 2.375 -5.71875 C 2.757812 -5.882812 3.179688 -5.96875 3.640625 -5.96875 C 4.085938 -5.96875 4.503906 -5.890625 4.890625 -5.734375 C 5.285156 -5.578125 5.625 -5.363281 5.90625 -5.09375 C 6.1875 -4.820312 6.40625 -4.5 6.5625 -4.125 C 6.71875 -3.757812 6.796875 -3.363281 6.796875 -2.9375 L 6.796875 -2.921875 C 6.796875 -2.492188 6.71875 -2.097656 6.5625 -1.734375 C 6.40625 -1.367188 6.179688 -1.046875 5.890625 -0.765625 C 5.609375 -0.484375 5.273438 -0.265625 4.890625 -0.109375 C 4.503906 0.046875 4.082031 0.125 3.625 0.125 Z M 3.640625 -1.296875 C 3.878906 -1.296875 4.09375 -1.335938 4.28125 -1.421875 C 4.46875 -1.503906 4.625 -1.617188 4.75 -1.765625 C 4.882812 -1.910156 4.984375 -2.078125 5.046875 -2.265625 C 5.117188 -2.460938 5.15625 -2.671875 5.15625 -2.890625 L 5.15625 -2.921875 C 5.15625 -3.140625 5.117188 -3.34375 5.046875 -3.53125 C 4.972656 -3.726562 4.867188 -3.898438 4.734375 -4.046875 C 4.597656 -4.203125 4.429688 -4.320312 4.234375 -4.40625 C 4.046875 -4.488281 3.84375 -4.53125 3.625 -4.53125 C 3.382812 -4.53125 3.171875 -4.488281 2.984375 -4.40625 C 2.796875 -4.320312 2.632812 -4.207031 2.5 -4.0625 C 2.375 -3.914062 2.273438 -3.742188 2.203125 -3.546875 C 2.128906 -3.359375 2.09375 -3.15625 2.09375 -2.9375 L 2.09375 -2.921875 C 2.09375 -2.703125 2.128906 -2.492188 2.203125 -2.296875 C 2.273438 -2.109375 2.378906 -1.9375 2.515625 -1.78125 C 2.660156 -1.632812 2.828125 -1.515625 3.015625 -1.421875 C 3.203125 -1.335938 3.410156 -1.296875 3.640625 -1.296875 Z M 3.640625 -1.296875 "/></g></g></g><g fill="#000000" fill-opacity="1"><g transform="translate(55.922156, 18.388386)"><g><path d="M 3.15625 0.109375 C 2.8125 0.109375 2.476562 0.046875 2.15625 -0.078125 C 1.832031 -0.210938 1.546875 -0.410156 1.296875 -0.671875 C 1.046875 -0.929688 0.847656 -1.25 0.703125 -1.625 C 0.554688 -2 0.484375 -2.429688 0.484375 -2.921875 L 0.484375 -2.9375 C 0.484375 -3.425781 0.554688 -3.859375 0.703125 -4.234375 C 0.847656 -4.609375 1.039062 -4.925781 1.28125 -5.1875 C 1.53125 -5.445312 1.816406 -5.640625 2.140625 -5.765625 C 2.460938 -5.898438 2.800781 -5.96875 3.15625 -5.96875 C 3.59375 -5.96875 3.957031 -5.878906 4.25 -5.703125 C 4.539062 -5.535156 4.78125 -5.332031 4.96875 -5.09375 L 4.96875 -7.984375 L 6.640625 -7.984375 L 6.640625 0 L 4.96875 0 L 4.96875 -0.84375 C 4.769531 -0.5625 4.523438 -0.332031 4.234375 -0.15625 C 3.953125 0.0195312 3.59375 0.109375 3.15625 0.109375 Z M 3.578125 -1.296875 C 3.773438 -1.296875 3.957031 -1.332031 4.125 -1.40625 C 4.300781 -1.488281 4.453125 -1.597656 4.578125 -1.734375 C 4.703125 -1.878906 4.800781 -2.050781 4.875 -2.25 C 4.957031 -2.457031 5 -2.679688 5 -2.921875 L 5 -2.9375 C 5 -3.175781 4.957031 -3.394531 4.875 -3.59375 C 4.800781 -3.800781 4.703125 -3.972656 4.578125 -4.109375 C 4.453125 -4.253906 4.300781 -4.363281 4.125 -4.4375 C 3.957031 -4.519531 3.773438 -4.5625 3.578125 -4.5625 C 3.378906 -4.5625 3.191406 -4.519531 3.015625 -4.4375 C 2.847656 -4.363281 2.695312 -4.253906 2.5625 -4.109375 C 2.4375 -3.972656 2.332031 -3.804688 2.25 -3.609375 C 2.175781 -3.410156 2.140625 -3.1875 2.140625 -2.9375 L 2.140625 -2.921875 C 2.140625 -2.679688 2.175781 -2.457031 2.25 -2.25 C 2.332031 -2.050781 2.4375 -1.878906 2.5625 -1.734375 C 2.695312 -1.597656 2.847656 -1.488281 3.015625 -1.40625 C 3.191406 -1.332031 3.378906 -1.296875 3.578125 -1.296875 Z M 3.578125 -1.296875 "/></g></g></g><g fill="#000000" fill-opacity="1"><g transform="translate(63.301403, 18.388386)"><g><path d="M 3.515625 0.125 C 3.078125 0.125 2.671875 0.0507812 2.296875 -0.09375 C 1.921875 -0.238281 1.597656 -0.441406 1.328125 -0.703125 C 1.054688 -0.972656 0.84375 -1.289062 0.6875 -1.65625 C 0.53125 -2.03125 0.453125 -2.441406 0.453125 -2.890625 L 0.453125 -2.921875 C 0.453125 -3.335938 0.523438 -3.726562 0.671875 -4.09375 C 0.816406 -4.46875 1.015625 -4.789062 1.265625 -5.0625 C 1.523438 -5.34375 1.832031 -5.5625 2.1875 -5.71875 C 2.539062 -5.882812 2.929688 -5.96875 3.359375 -5.96875 C 3.847656 -5.96875 4.269531 -5.878906 4.625 -5.703125 C 4.976562 -5.535156 5.273438 -5.300781 5.515625 -5 C 5.753906 -4.707031 5.929688 -4.367188 6.046875 -3.984375 C 6.160156 -3.597656 6.21875 -3.195312 6.21875 -2.78125 C 6.21875 -2.71875 6.210938 -2.648438 6.203125 -2.578125 C 6.203125 -2.503906 6.195312 -2.425781 6.1875 -2.34375 L 2.109375 -2.34375 C 2.191406 -1.96875 2.359375 -1.679688 2.609375 -1.484375 C 2.859375 -1.296875 3.171875 -1.203125 3.546875 -1.203125 C 3.816406 -1.203125 4.0625 -1.25 4.28125 -1.34375 C 4.5 -1.4375 4.726562 -1.585938 4.96875 -1.796875 L 5.921875 -0.96875 C 5.640625 -0.625 5.300781 -0.351562 4.90625 -0.15625 C 4.507812 0.03125 4.046875 0.125 3.515625 0.125 Z M 4.59375 -3.390625 C 4.539062 -3.765625 4.40625 -4.066406 4.1875 -4.296875 C 3.976562 -4.523438 3.703125 -4.640625 3.359375 -4.640625 C 3.003906 -4.640625 2.71875 -4.523438 2.5 -4.296875 C 2.289062 -4.066406 2.15625 -3.765625 2.09375 -3.390625 Z M 4.59375 -3.390625 "/></g></g></g><g fill="#000000" fill-opacity="1"><g transform="translate(70.002853, 18.388386)"><g><path d="M 0.671875 -1.75 L 2.453125 -1.75 L 2.453125 0 L 0.671875 0 Z M 0.671875 -1.75 "/></g></g></g></svg>