<?xml version="1.0" standalone="no"?>
<!DOCTYPE svg PUBLIC "-//W3C//DTD SVG 20010904//EN"
 "http://www.w3.org/TR/2001/REC-SVG-20010904/DTD/svg10.dtd">
<svg version="1.0" xmlns="http://www.w3.org/2000/svg"
 width="500.000000pt" height="500.000000pt" viewBox="0 0 500.000000 500.000000"
 preserveAspectRatio="xMidYMid meet">

<g transform="translate(0.000000,500.000000) scale(0.100000,-0.100000)"
fill="#000000" stroke="none">
<path d="M734 2891 c-108 -28 -217 -118 -265 -218 -56 -118 -51 -262 14 -373
102 -176 328 -247 512 -161 90 41 148 99 193 189 35 72 37 81 37 171 0 87 -3
102 -32 163 -42 89 -98 148 -185 193 -63 34 -80 38 -157 41 -47 2 -100 0 -117
-5z m180 -176 c-1 -5 -26 -112 -55 -237 l-53 -228 -33 0 c-18 0 -33 2 -33 5 0
7 109 446 115 463 6 15 61 12 59 -3z m-209 -65 c3 -5 -12 -40 -34 -78 -23 -37
-41 -72 -41 -76 0 -4 21 -37 47 -73 37 -52 43 -67 32 -74 -8 -5 -19 -9 -26 -9
-16 0 -123 138 -123 159 0 9 23 49 51 89 48 68 78 88 94 62z m345 -65 c27 -41
50 -80 50 -88 0 -19 -109 -157 -123 -157 -7 0 -18 4 -25 9 -11 6 -3 24 33 79
l47 70 -42 71 c-42 71 -44 91 -10 91 13 0 37 -25 70 -75z"/>
<path d="M2152 2698 l3 -43 50 0 50 0 3 43 3 42 -56 0 -56 0 3 -42z"/>
<path d="M3898 2728 c-3 -7 -4 -43 -4 -81 1 -37 0 -67 -1 -67 -1 0 -18 10 -38
21 -43 26 -118 23 -158 -7 -59 -43 -86 -160 -53 -237 37 -89 161 -126 224 -67
27 25 36 25 29 0 -5 -18 0 -20 44 -20 l49 0 0 235 0 235 -44 0 c-26 0 -46 -5
-48 -12z m-41 -203 c13 -9 28 -33 34 -54 30 -100 -87 -172 -145 -89 -19 26
-21 96 -3 119 30 39 78 49 114 24z"/>
<path d="M2855 2706 c-60 -28 -87 -56 -114 -116 -57 -126 14 -284 145 -320 80
-23 167 -4 234 49 l25 20 -31 31 -31 31 -49 -26 c-104 -56 -207 4 -207 121 0
117 124 181 216 113 l30 -22 29 32 c35 39 35 45 1 69 -70 48 -169 56 -248 18z"/>
<path d="M1360 2495 l0 -225 166 0 165 0 -3 43 -3 42 -112 3 -113 3 0 179 0
180 -50 0 -50 0 0 -225z"/>
<path d="M1840 2609 c-96 -38 -136 -182 -76 -272 58 -87 213 -102 281 -27 15
17 14 19 -14 40 -29 20 -33 20 -53 6 -48 -34 -138 -8 -138 39 0 13 20 15 121
15 l121 0 -7 48 c-9 64 -43 121 -85 144 -38 20 -109 23 -150 7z m119 -95 c12
-15 21 -31 21 -35 0 -5 -34 -9 -75 -9 -41 0 -75 4 -75 9 0 4 9 20 21 35 15 19
30 26 54 26 24 0 39 -7 54 -26z"/>
<path d="M2160 2445 l0 -175 45 0 45 0 0 175 0 175 -45 0 -45 0 0 -175z"/>
<path d="M2330 2612 c0 -4 25 -43 55 -86 30 -43 52 -84 48 -90 -3 -6 -30 -46
-60 -88 l-53 -78 52 0 c52 0 54 1 81 45 16 25 32 47 37 50 5 3 22 -17 39 -45
30 -49 32 -50 81 -50 27 0 50 2 50 5 0 3 -25 41 -55 84 -30 43 -55 82 -55 86
0 4 25 43 55 86 30 43 55 81 55 84 0 3 -22 5 -49 5 -48 0 -50 -1 -81 -50 -18
-27 -34 -50 -36 -50 -2 0 -18 23 -35 50 -30 49 -32 50 -80 50 -27 0 -49 -3
-49 -8z"/>
<path d="M3292 2599 c-87 -43 -122 -159 -73 -244 31 -56 81 -87 145 -93 132
-11 226 93 202 223 -8 43 -59 103 -103 121 -48 21 -121 17 -171 -7z m156 -95
c30 -35 30 -94 -2 -130 -65 -76 -185 12 -146 107 26 61 103 74 148 23z"/>
<path d="M4164 2606 c-17 -8 -44 -31 -60 -52 -26 -34 -29 -45 -29 -113 0 -64
4 -81 24 -110 57 -80 197 -95 268 -29 18 17 20 24 11 35 -23 28 -47 35 -70 18
-32 -22 -90 -19 -116 5 -46 43 -32 50 99 50 l122 0 -5 43 c-7 59 -35 113 -71
139 -38 27 -128 35 -173 14z m126 -88 c37 -40 27 -48 -55 -48 -75 0 -76 0 -64
23 21 40 31 47 65 47 21 0 40 -8 54 -22z"/>
<path d="M4480 2320 l0 -50 50 0 50 0 0 50 0 50 -50 0 -50 0 0 -50z"/>
</g>
</svg>
